<svg xmlns="http://www.w3.org/2000/svg" viewBox="0 0 800 500">
  <defs>
    <linearGradient id="ceu" x1="0" y1="0" x2="0" y2="1">
      <stop offset="0" stop-color="#3fb6ff"/>
      <stop offset="0.6" stop-color="#8fe0ff"/>
      <stop offset="1" stop-color="#ffd6ef"/>
    </linearGradient>
    <radialGradient id="brilho" cx="0.5" cy="0.5" r="0.5">
      <stop offset="0" stop-color="#fff" stop-opacity="0.9"/>
      <stop offset="1" stop-color="#fff" stop-opacity="0"/>
    </radialGradient>
  </defs>
  <rect width="800" height="500" fill="url(#ceu)"/>
  <!-- raios -->
  <g fill="#ffffff" opacity="0.16">
    <path d="M400 230 L250 -20 L330 -20 Z"/><path d="M400 230 L470 -20 L550 -20 Z"/>
    <path d="M400 230 L640 -20 L760 40 Z"/><path d="M400 230 L40 40 L160 -20 Z"/>
  </g>
  <!-- sol -->
  <circle cx="680" cy="90" r="66" fill="#fff6a8" opacity="0.5"/>
  <circle cx="680" cy="90" r="46" fill="#ffe36b"/>
  <circle cx="667" cy="85" r="5" fill="#5a3b1a"/><circle cx="693" cy="85" r="5" fill="#5a3b1a"/>
  <path d="M670 98 Q680 108 690 98" stroke="#5a3b1a" stroke-width="4" fill="none" stroke-linecap="round"/>
  <!-- nuvens -->
  <g fill="#ffffff">
    <circle cx="110" cy="120" r="34"/><circle cx="150" cy="128" r="28"/><circle cx="75" cy="132" r="24"/>
    <circle cx="610" cy="230" r="26"/><circle cx="640" cy="236" r="20"/><circle cx="585" cy="238" r="18"/>
    <circle cx="210" cy="250" r="22"/><circle cx="236" cy="256" r="17"/><circle cx="188" cy="258" r="15"/>
  </g>
  <!-- morro -->
  <path d="M-10 470 Q200 410 400 450 Q600 490 810 440 L810 510 L-10 510 Z" fill="#4fd17a"/>
  <rect x="-10" y="478" width="820" height="40" fill="#3bb565"/>
  <g transform="translate(40,46) scale(0.9)">
  <!-- torre -->
  <g>
    <g transform="translate(0,6)" opacity="0.18" fill="#2d1b4e">
      <rect x="306" y="420" width="200" height="40" rx="10"/>
    </g>
    <rect x="300" y="420" width="200" height="40" rx="10" fill="#e8337f"/><rect x="300" y="420" width="200" height="34" rx="10" fill="#ff5c9e"/>
    <rect x="296" y="380" width="200" height="40" rx="10" fill="#e8444f"/><rect x="296" y="380" width="200" height="34" rx="10" fill="#ff6b6b"/>
    <rect x="304" y="340" width="186" height="40" rx="10" fill="#ee6f2a"/><rect x="304" y="340" width="186" height="34" rx="10" fill="#ff9147"/>
    <rect x="312" y="300" width="172" height="40" rx="10" fill="#e8a91f"/><rect x="312" y="300" width="172" height="34" rx="10" fill="#ffc93c"/>
    <rect x="318" y="260" width="160" height="40" rx="10" fill="#8fc51e"/><rect x="318" y="260" width="160" height="34" rx="10" fill="#b4e63e"/>
    <rect x="318" y="220" width="160" height="40" rx="10" fill="#22b86a"/><rect x="318" y="220" width="160" height="34" rx="10" fill="#3fdc8a"/>
    <g fill="#ffffff" opacity="0.5">
      <rect x="310" y="425" width="180" height="6" rx="3"/><rect x="306" y="385" width="180" height="6" rx="3"/><rect x="314" y="345" width="166" height="6" rx="3"/>
      <rect x="322" y="305" width="152" height="6" rx="3"/><rect x="328" y="265" width="140" height="6" rx="3"/><rect x="328" y="225" width="140" height="6" rx="3"/>
    </g>
  </g>
  <!-- brilho do perfeito -->
  <circle cx="398" cy="200" r="110" fill="url(#brilho)"/>
  <!-- bloco caindo com carinha (squash) -->
  <g transform="translate(398,190) rotate(-4)">
    <rect x="-92" y="-30" width="184" height="58" rx="14" fill="#2d8be0"/>
    <rect x="-92" y="-30" width="184" height="50" rx="14" fill="#4ea8ff"/>
    <rect x="-80" y="-24" width="160" height="8" rx="4" fill="#ffffff" opacity="0.5"/>
    <ellipse cx="-28" cy="-2" rx="9" ry="12" fill="#2d1b4e"/><ellipse cx="28" cy="-2" rx="9" ry="12" fill="#2d1b4e"/>
    <circle cx="-25" cy="-7" r="3.5" fill="#fff"/><circle cx="31" cy="-7" r="3.5" fill="#fff"/>
    <ellipse cx="-52" cy="10" rx="10" ry="6" fill="#ff5f9e" opacity="0.7"/><ellipse cx="52" cy="10" rx="10" ry="6" fill="#ff5f9e" opacity="0.7"/>
    <path d="M-10 8 Q0 20 10 8" stroke="#2d1b4e" stroke-width="4.5" fill="none" stroke-linecap="round"/>
  </g>
  <!-- estrelinhas -->
  <g fill="#fff36b" stroke="#2d1b4e" stroke-width="3" stroke-linejoin="round">
    <path d="M262 168 l7 14 15 2 -11 10 3 15 -14 -7 -14 7 3 -15 -11 -10 15 -2 z"/>
    <path d="M530 150 l5 10 11 1.5 -8 7.5 2 11 -10 -5 -10 5 2 -11 -8 -7.5 11 -1.5 z"/>
  </g>
  <!-- pedaço cortado caindo -->
  <g transform="translate(540,300) rotate(28)">
    <rect x="-18" y="-20" width="36" height="40" rx="8" fill="#ffc93c"/>
  </g>
  </g>
  <!-- título -->
  <g font-family="Arial Black, Impact, sans-serif" font-weight="900" text-anchor="middle" stroke-linejoin="round" paint-order="stroke">
    <text x="400" y="84" font-size="64" fill="#ffffff" stroke="#2d1b4e" stroke-width="14">TORRE DE</text>
    <text x="400" y="150" font-size="70" fill="#ff4f9a" stroke="#2d1b4e" stroke-width="14">BLOCOS</text>
  </g>
</svg>
